<mxfile host="app.diagrams.net" modified="2021-02-25T09:06:52.508Z" agent="5.0 (Macintosh; Intel Mac OS X 10_14_6) AppleWebKit/537.36 (KHTML, like Gecko) Chrome/88.0.4324.150 Safari/537.36" etag="KobGdb0vG1C0V_Orr1B0" version="14.2.9" type="github">
  <diagram id="dx_qt4c30nw2T-CCNtRI" name="Page-1">
    <mxGraphModel dx="901" dy="591" grid="1" gridSize="10" guides="1" tooltips="1" connect="1" arrows="1" fold="1" page="1" pageScale="1" pageWidth="827" pageHeight="1169" math="0" shadow="0">
      <root>
        <mxCell id="0" />
        <mxCell id="1" parent="0" />
        <mxCell id="gdwj3W8RQ-KbuerVQQ01-30" value="" style="group" parent="1" vertex="1" connectable="0">
          <mxGeometry x="290" y="220" width="190" height="130" as="geometry" />
        </mxCell>
        <mxCell id="gdwj3W8RQ-KbuerVQQ01-34" value="" style="group" parent="gdwj3W8RQ-KbuerVQQ01-30" vertex="1" connectable="0">
          <mxGeometry width="190" height="130" as="geometry" />
        </mxCell>
        <mxCell id="gdwj3W8RQ-KbuerVQQ01-31" value="" style="rounded=0;whiteSpace=wrap;html=1;dashed=1;fillColor=none;" parent="gdwj3W8RQ-KbuerVQQ01-34" vertex="1">
          <mxGeometry y="19.25925925925926" width="190" height="110.74074074074073" as="geometry" />
        </mxCell>
        <mxCell id="gdwj3W8RQ-KbuerVQQ01-32" value="批量" style="rounded=0;whiteSpace=wrap;html=1;dashed=1;fillColor=#CCE5FF;" parent="gdwj3W8RQ-KbuerVQQ01-34" vertex="1">
          <mxGeometry width="190" height="19.25925925925926" as="geometry" />
        </mxCell>
        <mxCell id="gdwj3W8RQ-KbuerVQQ01-25" value="" style="group" parent="1" vertex="1" connectable="0">
          <mxGeometry x="90" y="220" width="190" height="130" as="geometry" />
        </mxCell>
        <mxCell id="gdwj3W8RQ-KbuerVQQ01-33" value="" style="group" parent="gdwj3W8RQ-KbuerVQQ01-25" vertex="1" connectable="0">
          <mxGeometry width="190" height="130" as="geometry" />
        </mxCell>
        <mxCell id="gdwj3W8RQ-KbuerVQQ01-22" value="" style="rounded=0;whiteSpace=wrap;html=1;dashed=1;fillColor=none;" parent="gdwj3W8RQ-KbuerVQQ01-33" vertex="1">
          <mxGeometry y="19.25925925925926" width="190" height="110.74074074074073" as="geometry" />
        </mxCell>
        <mxCell id="gdwj3W8RQ-KbuerVQQ01-23" value="流式" style="rounded=0;whiteSpace=wrap;html=1;dashed=1;fillColor=#CCE5FF;" parent="gdwj3W8RQ-KbuerVQQ01-33" vertex="1">
          <mxGeometry width="190" height="19.25925925925926" as="geometry" />
        </mxCell>
        <mxCell id="gdwj3W8RQ-KbuerVQQ01-2" value="" style="endArrow=none;dashed=1;html=1;" parent="1" edge="1">
          <mxGeometry width="50" height="50" relative="1" as="geometry">
            <mxPoint x="30" y="215" as="sourcePoint" />
            <mxPoint x="720" y="215" as="targetPoint" />
          </mxGeometry>
        </mxCell>
        <mxCell id="gdwj3W8RQ-KbuerVQQ01-3" value="特征生产层" style="text;html=1;strokeColor=none;fillColor=none;align=center;verticalAlign=middle;whiteSpace=wrap;rounded=0;" parent="1" vertex="1">
          <mxGeometry x="50" y="245" width="20" height="90" as="geometry" />
        </mxCell>
        <mxCell id="gdwj3W8RQ-KbuerVQQ01-4" value="stream-canal" style="rounded=1;whiteSpace=wrap;html=1;fillColor=none;" parent="1" vertex="1">
          <mxGeometry x="100" y="255" width="80" height="30" as="geometry" />
        </mxCell>
        <mxCell id="gdwj3W8RQ-KbuerVQQ01-5" value="argus-worker" style="rounded=1;whiteSpace=wrap;html=1;fillColor=none;" parent="1" vertex="1">
          <mxGeometry x="190" y="255" width="80" height="30" as="geometry" />
        </mxCell>
        <mxCell id="gdwj3W8RQ-KbuerVQQ01-6" value="gizzle-trigger" style="rounded=1;whiteSpace=wrap;html=1;fillColor=none;" parent="1" vertex="1">
          <mxGeometry x="100" y="310" width="80" height="30" as="geometry" />
        </mxCell>
        <mxCell id="gdwj3W8RQ-KbuerVQQ01-7" value="dufe-storage" style="rounded=1;whiteSpace=wrap;html=1;fillColor=none;" parent="1" vertex="1">
          <mxGeometry x="190" y="310" width="80" height="30" as="geometry" />
        </mxCell>
        <mxCell id="gdwj3W8RQ-KbuerVQQ01-26" value="gizzle-biz" style="rounded=1;whiteSpace=wrap;html=1;fillColor=none;" parent="1" vertex="1">
          <mxGeometry x="300" y="255" width="80" height="30" as="geometry" />
        </mxCell>
        <mxCell id="gdwj3W8RQ-KbuerVQQ01-27" value="gizzle-storage" style="rounded=1;whiteSpace=wrap;html=1;fillColor=none;" parent="1" vertex="1">
          <mxGeometry x="390" y="255" width="80" height="30" as="geometry" />
        </mxCell>
        <mxCell id="gdwj3W8RQ-KbuerVQQ01-28" value="dict-build" style="rounded=1;whiteSpace=wrap;html=1;fillColor=none;" parent="1" vertex="1">
          <mxGeometry x="300" y="310" width="80" height="30" as="geometry" />
        </mxCell>
        <mxCell id="gdwj3W8RQ-KbuerVQQ01-35" value="" style="group" parent="1" vertex="1" connectable="0">
          <mxGeometry x="490" y="220" width="190" height="130" as="geometry" />
        </mxCell>
        <mxCell id="gdwj3W8RQ-KbuerVQQ01-36" value="" style="group" parent="gdwj3W8RQ-KbuerVQQ01-35" vertex="1" connectable="0">
          <mxGeometry width="190" height="130" as="geometry" />
        </mxCell>
        <mxCell id="gdwj3W8RQ-KbuerVQQ01-37" value="" style="rounded=0;whiteSpace=wrap;html=1;dashed=1;fillColor=none;" parent="gdwj3W8RQ-KbuerVQQ01-36" vertex="1">
          <mxGeometry y="19.25925925925926" width="190" height="110.74074074074073" as="geometry" />
        </mxCell>
        <mxCell id="gdwj3W8RQ-KbuerVQQ01-38" value="高频" style="rounded=0;whiteSpace=wrap;html=1;dashed=1;fillColor=#CCE5FF;" parent="gdwj3W8RQ-KbuerVQQ01-36" vertex="1">
          <mxGeometry width="190" height="19.25925925925926" as="geometry" />
        </mxCell>
        <mxCell id="gdwj3W8RQ-KbuerVQQ01-39" value="gizzle-computation" style="rounded=1;whiteSpace=wrap;html=1;fillColor=none;" parent="gdwj3W8RQ-KbuerVQQ01-36" vertex="1">
          <mxGeometry x="10" y="59.629999999999995" width="80" height="30" as="geometry" />
        </mxCell>
        <mxCell id="gdwj3W8RQ-KbuerVQQ01-40" value="sds-worker" style="rounded=1;whiteSpace=wrap;html=1;fillColor=none;" parent="gdwj3W8RQ-KbuerVQQ01-36" vertex="1">
          <mxGeometry x="100" y="59.629999999999995" width="80" height="30" as="geometry" />
        </mxCell>
        <mxCell id="gdwj3W8RQ-KbuerVQQ01-44" value="特征服务层" style="text;html=1;strokeColor=none;fillColor=none;align=center;verticalAlign=middle;whiteSpace=wrap;rounded=0;" parent="1" vertex="1">
          <mxGeometry x="50" y="105" width="20" height="90" as="geometry" />
        </mxCell>
        <mxCell id="gdwj3W8RQ-KbuerVQQ01-55" value="dufe-api" style="rounded=1;whiteSpace=wrap;html=1;fillColor=none;" parent="1" vertex="1">
          <mxGeometry x="290" y="95" width="180" height="30" as="geometry" />
        </mxCell>
        <mxCell id="gdwj3W8RQ-KbuerVQQ01-56" value="dict-proxy" style="rounded=1;whiteSpace=wrap;html=1;fillColor=none;" parent="1" vertex="1">
          <mxGeometry x="290" y="165" width="80" height="30" as="geometry" />
        </mxCell>
        <mxCell id="gdwj3W8RQ-KbuerVQQ01-67" value="rt-proxy" style="rounded=1;whiteSpace=wrap;html=1;fillColor=none;" parent="1" vertex="1">
          <mxGeometry x="390" y="165" width="80" height="30" as="geometry" />
        </mxCell>
        <mxCell id="gdwj3W8RQ-KbuerVQQ01-69" value="sds-api" style="rounded=1;whiteSpace=wrap;html=1;fillColor=none;" parent="1" vertex="1">
          <mxGeometry x="290" y="30" width="80" height="30" as="geometry" />
        </mxCell>
        <mxCell id="gdwj3W8RQ-KbuerVQQ01-70" value="argus" style="rounded=1;whiteSpace=wrap;html=1;fillColor=none;" parent="1" vertex="1">
          <mxGeometry x="390" y="30" width="80" height="30" as="geometry" />
        </mxCell>
      </root>
    </mxGraphModel>
  </diagram>
</mxfile>
